<?xml version="1.0" encoding="UTF-8"?>
<svg width="260px" height="66px" viewBox="0 0 260 66" version="1.1" xmlns="http://www.w3.org/2000/svg" xmlns:xlink="http://www.w3.org/1999/xlink">
    <title>编组</title>
    <g id="页面-1" stroke="none" stroke-width="1" fill="none" fill-rule="evenodd">
        <g id="编组" fill="#FFFFFF" fill-rule="nonzero">
            <g id="Fill-1">
                <path d="M11.3368595,9.0260625 L11.3368595,30.109875 L22.673719,30.109875 C29.3241323,30.109875 33.1016529,26.4679688 33.1016529,19.5679687 C33.1016529,12.6658125 29.3241323,9.0260625 22.673719,9.0260625 L11.3368595,9.0260625 Z M25.3940496,-8.8817842e-16 C36.8813223,-8.8817842e-16 44.4385124,7.66115625 44.4385124,19.5679688 C44.4385124,29.6549063 38.9978513,36.708 30.3061157,38.6033438 L48.3685951,64.161375 L34.6143802,64.161375 L18.2150413,39.1337813 L11.3368595,39.1337813 L11.3368595,64.161375 L-1.25463875e-15,64.161375 L-1.25463875e-15,-8.8817842e-16 L25.3940496,-8.8817842e-16 Z"></path>
            </g>
            <g transform="translate(47.235769, 15.623972)" id="Fill-4">
                <path d="M10.8082644,19.8698437 L32.4226446,19.8698437 C31.5910744,12.43725 27.8887603,8.41800003 21.6917355,8.41800003 C16.0233058,8.41800003 11.8654545,12.43725 10.8082644,19.8698437 L10.8082644,19.8698437 Z M10.5804958,27.5288437 C11.1864463,36.4018125 16.0233058,41.1800625 23.0519008,41.1800625 C28.8707438,41.1800625 31.6684297,38.5257187 33.4067768,34.3555312 L42.0963636,38.45025 C39.3008264,45.1238437 33.6323967,49.6002187 23.1271074,49.6002187 C8.76694212,49.6002187 4.4408921e-16,39.3601875 4.4408921e-16,24.7990312 C4.4408921e-16,10.0114687 9.29553722,8.8817842e-16 21.7669421,8.8817842e-16 C35.0699173,8.8817842e-16 43.1557025,9.78290623 43.1557025,24.7990312 C43.1557025,25.7865937 43.0804958,26.9229375 42.9279339,27.5288437 L10.5804958,27.5288437 Z"></path>
            </g>
            <path d="M104.37367,16.609809 C104.524083,17.670684 104.751851,20.249559 104.902265,23.889309 C108.454165,18.2787465 114.122595,15.6244028 121.301603,15.6244028 C131.353504,15.6244028 137.550529,21.8430278 137.550529,32.9153715 L137.550529,64.1615903 L127.04524,64.1615903 L127.04524,34.584309 C127.04524,27.6821528 123.721108,24.4973715 117.448876,24.4973715 C110.267719,24.4973715 105.884248,29.5796528 105.884248,37.844559 L105.884248,64.1615903 L95.3789587,64.1615903 L95.3789587,27.606684 C95.3789587,22.828434 95.1533389,18.3542153 95.0029256,16.609809 L104.37367,16.609809 Z" id="Fill-7"></path>
            <g transform="translate(142.239124, 15.623756)" id="Fill-9">
                <path d="M22.521157,8.41799995 C15.3421487,8.41799995 10.5052892,14.9406563 10.5052892,24.7990313 C10.5052892,34.6574063 15.3421487,41.1800625 22.521157,41.1800625 C29.702314,41.1800625 34.5391735,34.6574063 34.5391735,24.7990313 C34.5391735,14.9406563 29.702314,8.41799995 22.521157,8.41799995 M22.521157,-4.4408921e-16 C35.521157,-4.4408921e-16 44.9671074,9.85837495 44.9671074,24.7990313 C44.9671074,39.6642188 35.521157,49.6002188 22.521157,49.6002188 C9.44809918,49.6002188 -6.66133815e-16,39.6642188 -6.66133815e-16,24.7990313 C-6.66133815e-16,9.85837495 9.44809918,-4.4408921e-16 22.521157,-4.4408921e-16"></path>
            </g>
            <path d="M246.441537,16.6749277 L224.06005,16.6749277 C219.648645,16.6749277 218.049967,17.1363652 216.436248,18.0010215 C214.824678,18.8656777 213.559058,20.135709 212.695256,21.7550527 C211.833603,23.3722402 211.373769,24.9786465 211.373769,29.4054277 L211.373769,51.4681777 C211.373769,55.8928027 211.833603,57.499209 212.695256,59.1185528 C213.559058,60.7357403 214.824678,62.0057715 216.436248,62.872584 C218.049967,63.7372402 219.648645,64.1986777 224.06005,64.1986777 L246.441537,64.1986777 C250.852942,64.1986777 252.45162,63.7372402 254.065339,62.872584 C255.676909,62.0057715 256.942529,60.7357403 257.806331,59.1185528 C258.667984,57.499209 259.127818,55.8928027 259.127818,51.4681777 L259.127818,29.4054277 C259.127818,24.9786465 258.667984,23.3722402 257.806331,21.7550527 C256.942529,20.135709 255.676909,18.8656777 254.065339,18.0010215 C252.45162,17.1363652 250.852942,16.6749277 246.441537,16.6749277 M246.441537,20.221959 C250.401703,20.221959 251.409471,20.5971465 252.397901,21.127584 C253.388479,21.6601777 254.159884,22.4321152 254.688479,23.4261465 C255.217075,24.4201777 255.593108,25.431459 255.593108,29.4054277 L255.593108,51.4681777 C255.593108,55.4421465 255.217075,56.4512715 254.688479,57.4453028 C254.159884,58.439334 253.388479,59.2134278 252.397901,59.7438652 C251.409471,60.276459 250.401703,60.6516465 246.441537,60.6516465 L224.06005,60.6516465 C220.099884,60.6516465 219.092116,60.276459 218.103686,59.7438652 C217.113108,59.2134278 216.341703,58.439334 215.813108,57.4453028 C215.284513,56.4512715 214.908479,55.4421465 214.908479,51.4681777 L214.908479,29.4054277 C214.908479,25.431459 215.284513,24.4201777 215.813108,23.4283027 C216.341703,22.4321152 217.113108,21.6601777 218.103686,21.127584 C219.092116,20.5971465 220.099884,20.221959 224.06005,20.221959 L246.441537,20.221959" id="Fill-12"></path>
            <polygon id="路径" points="245.073422 50.1683903 245.073422 53.6291715 225.427306 53.6291715 225.427306 51.1042028 239.727306 30.7039215 226.392099 30.7039215 226.392099 27.2431402 244.854248 27.2431402 244.854248 29.768109 230.588628 50.1683903"></polygon>
        </g>
    </g>
</svg>